<svg width="114" height="40" viewBox="0 0 114 40" fill="none" xmlns="http://www.w3.org/2000/svg">
<path fill-rule="evenodd" clip-rule="evenodd" d="M78.062 33.9722H93.3654V6.63315H78.062V33.9722Z" fill="#EA5C0F"/>
<path fill-rule="evenodd" clip-rule="evenodd" d="M79.0334 20.303C79.0334 14.7567 81.645 9.81764 85.7133 6.63399C82.7384 4.30582 78.9842 2.91667 74.9045 2.91667C65.2458 2.91667 57.4161 10.7008 57.4161 20.303C57.4161 29.9055 65.2458 37.6901 74.9045 37.6901C78.9842 37.6901 82.7384 36.301 85.7133 33.9722C81.645 30.7883 79.0334 25.8493 79.0334 20.303Z" fill="#DD0C17"/>
<path fill-rule="evenodd" clip-rule="evenodd" d="M114.011 20.303C114.011 29.9055 106.181 37.6901 96.5219 37.6901C92.4419 37.6901 88.6888 36.301 85.7137 33.9722C89.7811 30.7883 92.3939 25.8493 92.3939 20.303C92.3939 14.7567 89.7811 9.81764 85.7137 6.63399C88.6888 4.30582 92.4419 2.91667 96.5219 2.91667C106.181 2.91667 114.011 10.7008 114.011 20.303Z" fill="#F79E1B"/>
<path fill-rule="evenodd" clip-rule="evenodd" d="M113.465 31.2353V30.402H113.288L113.084 30.9751L112.88 30.402H112.702V31.2353H112.827V30.6066L113.019 31.1486H113.148L113.34 30.6056V31.2353H113.465ZM112.342 31.2353V30.544H112.569V30.4037H111.991V30.544H112.218V31.2353H112.342Z" fill="#F69F00"/>
<path fill-rule="evenodd" clip-rule="evenodd" d="M36.8621 11.9932C35.3169 9.61719 32.2355 8.76898 29.6878 10.0176C26.9661 11.396 25.8792 14.7147 27.2604 17.4304C28.0472 18.9774 29.5177 20.0648 31.2298 20.3657C31.022 26.9115 25.5355 32.0498 18.9753 31.8425C12.6034 31.641 7.52584 26.4587 7.46798 20.0978C7.4565 15.1971 10.5112 10.8101 15.1182 9.11081C16.0036 8.79125 16.5139 7.86584 16.3106 6.94865L16.2972 6.89006C16.071 5.88681 16.7028 4.89027 17.7083 4.66454C17.7904 4.64638 17.8739 4.63341 17.9577 4.62627C18.4201 4.58389 18.885 4.56292 19.3524 4.56249C19.9305 4.56249 20.5082 4.59406 21.0831 4.65698C22.1219 4.77049 23.0559 4.02195 23.1694 2.98562C23.1731 2.95146 23.1759 2.9173 23.1779 2.88314C23.2058 1.85525 22.4249 0.984326 21.398 0.898056C20.7184 0.826705 20.0356 0.791029 19.3524 0.791029C8.66435 0.791029 4.57764e-05 9.43643 4.57764e-05 20.1011C4.57764e-05 30.7655 8.66457 39.4107 19.3526 39.4107C30.0406 39.4107 38.7049 30.7653 38.7049 20.1011C38.7049 18.2131 38.3246 14.143 36.8621 11.9932Z" fill="#222222"/>
<path fill-rule="evenodd" clip-rule="evenodd" d="M26.6517 2.25691C27.759 2.25691 28.6565 3.15269 28.6565 4.25734C28.6565 5.36199 27.759 6.25778 26.6517 6.25778C25.5446 6.25778 24.647 5.36199 24.647 4.25734C24.647 3.15269 25.5446 2.25691 26.6517 2.25691Z" fill="#222222"/>
</svg>
