<svg width="27" height="33" viewBox="0 0 27 33" fill="none" xmlns="http://www.w3.org/2000/svg">
<path d="M22.609 17.73C22.573 13.701 25.903 11.741 26.055 11.65C24.169 8.896 21.245 8.52 20.218 8.49C17.763 8.231 15.381 9.961 14.131 9.961C12.855 9.961 10.929 8.515 8.853 8.557C6.181 8.599 3.683 10.147 2.312 12.552C-0.517001 17.456 1.592 24.662 4.302 28.626C5.658 30.567 7.242 32.735 9.316 32.659C11.344 32.575 12.102 31.364 14.55 31.364C16.975 31.364 17.687 32.659 19.802 32.61C21.979 32.575 23.349 30.66 24.657 28.701C26.224 26.476 26.853 24.285 26.878 24.172C26.827 24.155 22.65 22.559 22.608 17.73H22.609ZM18.614 5.883C19.705 4.516 20.452 2.658 20.244 0.770996C18.666 0.840996 16.691 1.865 15.554 3.201C14.547 4.38 13.649 6.31 13.88 8.124C15.654 8.256 17.475 7.228 18.613 5.883H18.614Z" fill="white"/>
</svg>
