<svg width="24" height="24" viewBox="0 0 24 24" fill="none" xmlns="http://www.w3.org/2000/svg">
<path d="M23.31 12.5442C23.31 11.7472 23.246 10.9512 23.117 10.1702H12.19V14.6742H18.451C18.193 16.1212 17.357 17.4222 16.133 18.2342V21.1612H19.867C22.057 19.1292 23.312 16.1212 23.312 12.5442H23.31Z" fill="#4285F4"/>
<path d="M12.19 23.9901C15.311 23.9901 17.951 22.9501 19.866 21.1611L16.132 18.2351C15.086 18.9501 13.75 19.3561 12.189 19.3561C9.163 19.3561 6.604 17.2921 5.687 14.5281H1.84V17.5521C3.804 21.5021 7.811 23.9901 12.19 23.9901Z" fill="#34A853"/>
<path d="M5.687 14.5282C5.204 13.0812 5.204 11.5032 5.687 10.0402V7.03223H1.84C0.181997 10.3322 0.181997 14.2352 1.84 17.5352L5.687 14.5282Z" fill="#FBBC04"/>
<path d="M12.19 5.21112C13.847 5.17912 15.44 5.81312 16.631 6.96712L19.947 3.61812C17.838 1.63412 15.07 0.545121 12.189 0.578121C7.811 0.578121 3.804 3.08112 1.84 7.03212L5.687 10.0561C6.604 7.27612 9.163 5.21112 12.189 5.21112H12.19Z" fill="#EA4335"/>
</svg>
