<svg width="170" height="57" viewBox="0 0 170 57" fill="none" xmlns="http://www.w3.org/2000/svg">
<path fill-rule="evenodd" clip-rule="evenodd" d="M62.223 24.909C62.391 21.156 65.563 18.249 69.305 18.419L69.406 18.424C72.732 18.22 75.593 20.758 75.796 24.092C75.813 24.364 75.811 24.637 75.791 24.909H62.223ZM69.395 12.539C60.415 12.539 56.483 18.577 55.227 23.685C54.882 25.062 54.709 26.477 54.711 27.898C54.663 31.262 55.673 34.556 57.598 37.312C60.514 41.072 64.997 43.273 69.747 43.278C74.595 43.455 77.834 42.631 80.311 41.22C80.806 40.898 81.041 40.297 80.898 39.725V35.805C80.898 35.006 80.417 34.629 79.724 35.111C76.824 36.974 73.385 37.804 69.958 37.465C65.92 37.412 62.556 34.347 62.118 30.322H82.071C82.521 30.322 82.887 29.96 82.894 29.509C83.245 24.037 81.66 12.539 69.395 12.539ZM21.035 37.912H12.267C11.142 37.88 10.056 37.497 9.15699 36.817C8.21899 36.157 7.66899 35.073 7.68999 33.923C7.68999 32.333 8.75799 29.157 14.098 29.157H21.036V37.912H21.035ZM27.55 24.862C27.55 20.849 26.659 17.8 24.732 15.694C22.808 13.588 18.934 12.54 15.342 12.54C11.738 12.526 8.19299 13.472 5.07199 15.282C4.87399 15.4 4.75199 15.615 4.75599 15.847L5.02599 20.272C5.09999 20.701 5.50799 20.988 5.93599 20.912C6.07699 20.888 6.20899 20.825 6.31599 20.731C10.718 18.013 16 17.506 18.688 18.871C20.195 19.741 21.098 21.377 21.036 23.121V23.767H13.699C10.542 23.767 0.869987 24.944 0.869987 33.852V33.947C0.717987 36.696 1.88199 39.354 4.00399 41.101C6.28999 42.716 9.05399 43.508 11.844 43.349H26.694C27.173 43.349 27.562 42.959 27.562 42.479V24.826L27.55 24.861V24.862ZM101.286 37.395C97.659 37.395 95.041 34.735 93.938 31.428C93.158 29.139 93.158 26.656 93.938 24.367C95.041 21.06 97.659 18.401 101.286 18.401C109.396 18.401 109.666 26.697 109.666 27.898C109.666 29.098 109.396 37.395 101.286 37.395ZM116.322 27.909C116.386 24.543 115.374 21.244 113.435 18.495C108.229 11.768 98.57 10.545 91.86 15.765C90.842 16.557 89.928 17.474 89.137 18.495C85.232 24.161 85.232 31.658 89.137 37.324C92.006 41.142 96.519 43.358 101.287 43.291C104.364 43.301 107.377 42.391 109.937 40.678V44.397C109.937 49.445 105.535 50.363 102.717 50.539C100.779 50.604 98.839 50.498 96.919 50.222C96.145 50.104 95.605 50.222 95.605 51.057V55.529C95.625 55.952 95.981 56.279 96.402 56.259H96.403C102.941 56.824 107.343 56.706 110.653 54.812C112.971 53.437 114.693 51.241 115.477 48.657C116.062 46.663 116.343 44.592 116.31 42.514V27.909H116.322ZM137.932 14.269V17.8C137.998 18.303 137.646 18.765 137.145 18.833C137.015 18.85 136.882 18.839 136.757 18.801C131.052 17.624 127.543 20.166 127.543 25.451V42.514C127.543 42.994 127.153 43.384 126.675 43.384H121.627C121.147 43.384 120.759 42.994 120.759 42.514V25.085C120.698 21.751 122.049 18.547 124.479 16.271C126.947 13.852 130.266 12.507 133.717 12.528C134.899 12.531 136.077 12.641 137.238 12.858C137.837 13.058 137.931 13.411 137.931 14.318V14.27L137.932 14.269ZM38.958 42.515C38.958 42.995 38.568 43.385 38.089 43.385H33.042C32.562 43.385 32.173 42.995 32.173 42.515V0.914968C32.173 0.437968 32.555 0.0489688 33.03 0.0429688H38.077C38.557 0.0429688 38.947 0.432968 38.947 0.914968V42.515H38.957H38.958ZM50.813 42.515C50.813 42.995 50.423 43.385 49.945 43.385H44.897C44.417 43.385 44.028 42.995 44.028 42.515V0.914968C44.028 0.432968 44.418 0.0429688 44.897 0.0429688H49.945C50.424 0.0429688 50.813 0.432968 50.813 0.914968V42.515ZM161.441 31.453C160.337 34.76 157.719 37.336 154.093 37.419C150.465 37.502 147.848 34.759 146.756 31.453C145.976 29.163 145.976 26.68 146.756 24.392C147.86 21.085 150.477 18.507 154.093 18.425C157.708 18.343 160.337 21.085 161.441 24.392C162.217 26.677 162.217 29.156 161.441 31.441V31.453ZM166.253 18.507C161.047 11.781 151.388 10.559 144.678 15.777C143.661 16.57 142.746 17.487 141.956 18.507C140.029 21.264 139.019 24.557 139.068 27.922C139.019 31.287 140.029 34.581 141.956 37.336C147.162 44.063 156.821 45.286 163.53 40.066C164.548 39.275 165.463 38.358 166.253 37.336C168.178 34.581 169.189 31.286 169.141 27.922C169.189 24.558 168.178 21.264 166.253 18.507Z" fill="#222222"/>
</svg>
