<svg width="70" height="70" viewBox="0 0 70 70" fill="none" xmlns="http://www.w3.org/2000/svg">
<path fill-rule="evenodd" clip-rule="evenodd" d="M0.173996 69.916H69.824V0.0839844H0.173996V69.916Z" fill="#222222"/>
<path fill-rule="evenodd" clip-rule="evenodd" d="M35 4.0271C17.941 4.0271 4.105 17.9001 4.105 35.0101C4.105 52.1021 17.941 65.9761 34.998 65.9761C52.054 65.9761 65.891 52.1021 65.891 35.0101C65.892 17.9001 52.055 4.0271 34.999 4.0271" fill="white"/>
<path fill-rule="evenodd" clip-rule="evenodd" d="M33.079 35.869L27.63 30.407L21.339 36.719V38.839L22.923 37.243L27.31 41.652L25.692 43.276L26.745 44.342L35.521 35.523V33.414L33.079 35.869ZM7.61699 29.253H17.332V31.355H15.712V38.15L21.339 35.01V40.766H7.61699V38.655H9.24599V31.355H7.61699V29.253ZM48.579 29.253V31.355H50.206V38.655H48.579V40.766H62.309V35.01L56.672 38.15V31.355H58.301V29.253H48.579ZM26.824 22.708C28.734 22.708 30.284 24.252 30.284 26.166C30.284 28.082 28.734 29.636 26.824 29.636C24.914 29.636 23.365 28.082 23.365 26.166C23.365 24.251 24.915 22.708 26.825 22.708" fill="#222222"/>
<path fill-rule="evenodd" clip-rule="evenodd" d="M43.164 29.2532H33.902V31.3552H35.522V38.6552H33.902V40.7652H43.164C50.012 40.7652 50.082 29.2532 43.164 29.2532Z" fill="#222222"/>
<path fill-rule="evenodd" clip-rule="evenodd" d="M41.863 37.1731H41.403V32.8281H41.793C43.819 32.8281 43.819 37.1831 41.863 37.1731Z" fill="white"/>
</svg>
