<svg width="58" height="24" viewBox="0 0 58 24" fill="none" xmlns="http://www.w3.org/2000/svg">
<path fill-rule="evenodd" clip-rule="evenodd" d="M38.45 15.1512C38.611 15.2913 38.699 15.4973 38.69 15.7113C38.69 16.3142 38.34 16.6152 37.644 16.6152H31.65C31.19 16.6432 30.792 16.2923 30.765 15.8313C30.763 15.8033 30.763 15.7743 30.764 15.7452C30.764 15.4352 30.892 15.1413 31.117 14.9303L36.065 9.60625H32.235C31.985 9.62325 31.736 9.55125 31.535 9.40125C31.371 9.25625 31.283 9.04425 31.295 8.82525C31.295 8.23425 31.643 7.93825 32.341 7.93825H38.069C38.311 7.92625 38.548 8.02025 38.716 8.19525C38.872 8.36025 38.958 8.58025 38.955 8.80825C38.949 9.12025 38.821 9.41925 38.601 9.64125L33.671 14.9473H37.749C37.999 14.9303 38.249 15.0022 38.45 15.1512ZM41.615 11.4862H45.658C45.711 10.9012 45.547 10.3162 45.197 9.84625C44.857 9.46325 44.36 9.25825 43.849 9.28725C42.596 9.28725 41.852 10.0203 41.615 11.4873V11.4862ZM47.335 12.4712C47.195 12.6082 47.005 12.6833 46.811 12.6753H41.545C41.53 13.3313 41.767 13.9662 42.208 14.4502C42.681 14.8762 43.304 15.0932 43.938 15.0542C44.318 15.0592 44.698 15.0083 45.064 14.9043C45.416 14.7952 45.753 14.6442 46.066 14.4502C46.201 14.3722 46.353 14.3302 46.509 14.3263C46.692 14.3182 46.869 14.4012 46.979 14.5483C47.094 14.7052 47.154 14.8952 47.147 15.0892C47.149 15.4292 46.983 15.7483 46.704 15.9412C46.319 16.2092 45.89 16.4082 45.436 16.5273C44.902 16.6813 44.351 16.7592 43.796 16.7572C42.991 16.7762 42.194 16.5963 41.473 16.2343C40.827 15.9023 40.294 15.3853 39.939 14.7522C39.567 14.0672 39.38 13.2952 39.399 12.5153C39.384 11.6593 39.573 10.8113 39.948 10.0413C40.291 9.33825 40.826 8.74825 41.491 8.33725C42.175 7.92325 42.961 7.71025 43.761 7.72425C44.805 7.66025 45.825 8.05525 46.554 8.80725C47.259 9.67525 47.611 10.7773 47.538 11.8953C47.552 12.1073 47.476 12.3152 47.334 12.4712H47.335ZM56.46 8.51425C57.005 9.16425 57.275 10.0023 57.215 10.8483C57.215 11.0723 57.208 11.2442 57.195 11.3632L56.841 15.6573C56.833 15.9553 56.705 16.2362 56.486 16.4373C56.261 16.6322 55.968 16.7332 55.671 16.7222C55.378 16.7402 55.09 16.6372 54.872 16.4382C54.677 16.2282 54.585 15.9413 54.625 15.6573L54.98 11.4522C55.074 10.1382 54.554 9.48225 53.42 9.48225C52.85 9.45025 52.295 9.66325 51.894 10.0673C51.501 10.5223 51.276 11.0982 51.256 11.7002L50.919 15.6573C50.911 15.9553 50.783 16.2362 50.564 16.4373C50.339 16.6322 50.046 16.7332 49.749 16.7222C49.459 16.7413 49.171 16.6382 48.959 16.4382C48.769 16.2252 48.675 15.9413 48.702 15.6573L49.27 8.77125C49.271 8.48625 49.402 8.21525 49.624 8.03525C49.861 7.84825 50.157 7.75125 50.458 7.76025C50.733 7.74425 51.001 7.84025 51.203 8.02625C51.384 8.21625 51.463 8.47925 51.416 8.73625L51.397 9.07325C51.699 8.64325 52.108 8.30025 52.586 8.07925C53.107 7.83825 53.677 7.71625 54.253 7.72525C55.067 7.66625 55.868 7.95325 56.46 8.51525V8.51425ZM21.568 7.48025C20.664 6.08625 18.86 5.58825 17.369 6.32025C15.777 7.13025 15.142 9.07725 15.949 10.6702C16.41 11.5782 17.271 12.2172 18.273 12.3942C18.151 16.2343 14.941 19.2502 11.102 19.1283C7.374 19.0103 4.403 15.9692 4.369 12.2362C4.363 9.36025 6.149 6.78625 8.845 5.78825C9.363 5.60125 9.663 5.05825 9.543 4.51925L9.535 4.48625C9.403 3.89625 9.773 3.31225 10.361 3.17925C10.409 3.16925 10.458 3.16125 10.507 3.15725C10.777 3.13225 11.05 3.11925 11.323 3.11925C11.661 3.11925 12 3.13925 12.335 3.17525C12.943 3.24225 13.491 2.80225 13.556 2.19525C13.559 2.17525 13.561 2.15325 13.562 2.13325C13.578 1.53025 13.12 1.01925 12.52 0.96925C12.122 0.92625 11.722 0.90625 11.323 0.90625C5.07 0.90625 0 5.98025 0 12.2382C0 18.4972 5.07 23.5693 11.323 23.5693C17.577 23.5693 22.646 18.4972 22.646 12.2382C22.646 11.1302 22.423 8.74225 21.568 7.48025Z" fill="#AAAAAA"/>
</svg>
